<?xml version="1.0" encoding="UTF-8"?>
<svg width="32" height="32" viewBox="0 0 32 32" fill="none" xmlns="http://www.w3.org/2000/svg">
  <path
    d="M28 16C28 22.6274 22.6274 28 16 28C9.37258 28 4 22.6274 4 16C4 9.37258 9.37258 4 16 4C16.6906 4 17.3684 4.0557 18.0286 4.16291C14.3243 7.05623 12 11.2354 12 16C12 20.7646 14.3243 24.9438 18.0286 27.8371C17.3684 27.9443 16.6906 28 16 28Z"
    fill="#2196F3"
  />
  <path
    d="M20 12L22 14L16 20L12 16L14 14L16 16L20 12Z"
    fill="white"
  />
</svg>